<svg width="25" height="24" viewBox="0 0 25 24" fill="none" xmlns="http://www.w3.org/2000/svg">
<path d="M2.5 9.65359L11.5033 2.45095C12.2548 1.84972 13.3227 1.84972 14.0742 2.45095L23.0775 9.65359" stroke="#0D6EFD" stroke-width="1.5" stroke-linecap="round" stroke-linejoin="round"/>
<path d="M10.1935 3.53109L6.07804 6.87494C5.33082 7.48206 4.9572 7.78562 4.75746 8.20525C4.55774 8.62487 4.55774 9.10626 4.55774 10.0691V13.769C4.55774 17.6491 4.55774 19.5892 5.76314 20.7946C6.96855 22 8.90861 22 12.7887 22C16.6688 22 18.609 22 19.8143 20.7946C21.0198 19.5892 21.0198 17.6491 21.0198 13.769V10.0691C21.0198 9.10626 21.0198 8.62487 20.8201 8.20525C20.6202 7.78562 20.2467 7.48206 19.4995 6.87494L15.384 3.53109C14.1409 2.52109 13.5194 2.01608 12.7887 2.01608C12.0581 2.01608 11.4366 2.52109 10.1935 3.53109Z" stroke="#0D6EFD" stroke-width="1.5"/>
<path d="M10.4736 16.0841H15.1036" stroke="#0D6EFD" stroke-width="1.5" stroke-linecap="round"/>
</svg>
