<svg width="44" height="44" viewBox="0 0 44 44" fill="none" xmlns="http://www.w3.org/2000/svg">
<circle cx="21.9999" cy="22" r="22" fill="#F7F7F9"/>
<path d="M15.3132 22.9153L14.568 22.8307L14.568 22.8307L15.3132 22.9153ZM15.7604 18.9752L16.5056 19.0598L15.7604 18.9752ZM14.4477 24.8721L13.8766 24.386H13.8766L14.4477 24.8721ZM29.4319 22.8307C29.3852 22.4191 29.0137 22.1233 28.6021 22.17C28.1905 22.2168 27.8947 22.5883 27.9414 22.9998L29.4319 22.8307ZM29.5522 24.8721L28.981 25.3583L29.5522 24.8721ZM19.73 14.3737L19.9729 15.0832C20.2762 14.9794 20.48 14.6942 20.48 14.3737H19.73ZM23.1539 13.2806C23.4237 13.5949 23.8972 13.6309 24.2115 13.3611C24.5257 13.0912 24.5618 12.6177 24.2919 12.3035L23.1539 13.2806ZM25.7022 30.2632C25.8476 29.8753 25.651 29.4431 25.2631 29.2977C24.8753 29.1523 24.443 29.3489 24.2976 29.7368L25.7022 30.2632ZM19.7022 29.7368C19.5569 29.3489 19.1246 29.1523 18.7367 29.2977C18.3489 29.4431 18.1523 29.8753 18.2976 30.2632L19.7022 29.7368ZM27.7771 27.25H16.2228V28.75H27.7771V27.25ZM16.0584 22.9998L16.5056 19.0598L15.0152 18.8906L14.568 22.8307L16.0584 22.9998ZM15.0188 25.3583C15.5961 24.6801 15.9602 23.8652 16.0584 22.9998L14.568 22.8307C14.5051 23.3846 14.2706 23.9231 13.8766 24.386L15.0188 25.3583ZM27.9414 22.9998C28.0397 23.8652 28.4037 24.6801 28.981 25.3583L30.1233 24.386C29.7293 23.9231 29.4947 23.3846 29.4319 22.8307L27.9414 22.9998ZM16.2228 27.25C15.5677 27.25 15.1044 26.926 14.8905 26.5492C14.684 26.1854 14.6871 25.748 15.0188 25.3583L13.8766 24.386C13.1113 25.285 13.0877 26.4116 13.5859 27.2895C14.0767 28.1544 15.0494 28.75 16.2228 28.75V27.25ZM27.7771 28.75C28.9505 28.75 29.9231 28.1544 30.414 27.2895C30.9122 26.4116 30.8885 25.285 30.1233 24.386L28.981 25.3583C29.3128 25.748 29.3158 26.1854 29.1094 26.5492C28.8955 26.926 28.4322 27.25 27.7771 27.25V28.75ZM20.48 14.3737V14.2699H18.98V14.3737H20.48ZM16.5056 19.0598C16.7086 17.271 18.0558 15.7396 19.9729 15.0832L19.487 13.6641C17.1194 14.4748 15.2944 16.4303 15.0152 18.8906L16.5056 19.0598ZM21.9999 11.25C20.3321 11.25 18.98 12.6021 18.98 14.2699H20.48C20.48 13.4305 21.1605 12.75 21.9999 12.75V11.25ZM21.9999 12.75C22.4613 12.75 22.874 12.9546 23.1539 13.2806L24.2919 12.3035C23.7392 11.6597 22.917 11.25 21.9999 11.25V12.75ZM24.2976 29.7368C23.9749 30.5979 23.0845 31.25 21.9999 31.25V32.75C23.6854 32.75 25.1516 31.7325 25.7022 30.2632L24.2976 29.7368ZM21.9999 31.25C20.9154 31.25 20.025 30.5979 19.7022 29.7368L18.2976 30.2632C18.8483 31.7325 20.3145 32.75 21.9999 32.75V31.25Z" fill="#1B1E28"/>
<path d="M30.9999 17C30.9999 18.6569 29.6568 20 27.9999 20C26.3431 20 24.9999 18.6569 24.9999 17C24.9999 15.3431 26.3431 14 27.9999 14C29.6568 14 30.9999 15.3431 30.9999 17Z" fill="#FF7029"/>
<path d="M30.4999 17C30.4999 18.3807 29.3807 19.5 27.9999 19.5V20.5C29.9329 20.5 31.4999 18.933 31.4999 17H30.4999ZM27.9999 19.5C26.6192 19.5 25.4999 18.3807 25.4999 17H24.4999C24.4999 18.933 26.0669 20.5 27.9999 20.5V19.5ZM25.4999 17C25.4999 15.6193 26.6192 14.5 27.9999 14.5V13.5C26.0669 13.5 24.4999 15.067 24.4999 17H25.4999ZM27.9999 14.5C29.3807 14.5 30.4999 15.6193 30.4999 17H31.4999C31.4999 15.067 29.9329 13.5 27.9999 13.5V14.5Z" fill="white"/>
</svg>
